<svg version="1.1" id="Layer_1" x="0px" y="0px"
	 width="533.756px" height="55.525px" viewBox="0 0 533.756 55.525" enable-background="new 0 0 533.756 55.525">
<image overflow="visible" width="1080" height="720" transform="matrix(1 0 0 1 -119.7915 261.3076)">
</image>
<g>
	<g>
		<g>
			<path fill="#0098FF" d="M44.278,183.335c-1.123-6.079-0.883-13.665,1.762-20.742c-0.048,0-0.096,0-0.144,0
				c-3.937,6.198-6.691,13.582-7.82,19.537c-1.221,6.612-0.894,13.087,0.981,18.856c-2.856,0-5.712,0-8.568,0
				c-5.527-5.703-9.542-12.096-12.044-18.63c-2.361-6.027-3.245-13.419-2.071-19.763c-0.048,0-0.096,0-0.144,0
				c-2.723,6.557-3.687,14.582-2.964,20.893c0.622,6.416,2.71,12.664,6.265,18.22c-3.384,0-6.769,0-10.153,0
				c-9.149-14.628-8.132-34.056,3.051-48.698c4.872,0,9.745,0,14.617,0c-1.805,4.888-2.476,10.31-2.015,15.908
				c0.389,5.819,1.915,12.294,4.396,18.158c0.096,0,0.192,0,0.288,0c-0.122-5.787,1.482-12.642,4.332-18.233
				c2.832-5.571,6.787-10.966,11.865-15.833c4.8,0,9.601,0,14.401,0c-9.287,14.643-8.408,34.07,2.638,48.698
				c-3.553,0-7.105,0-10.657,0C48.132,196.106,45.46,189.804,44.278,183.335z"/>
			<path fill="#0098FF" d="M82.341,153.008c-10.151,14.643-10.136,34.07,0.045,48.698c-3.648,0-7.297,0-10.945,0
				c-10.181-14.628-10.196-34.056-0.045-48.698C75.044,153.008,78.693,153.008,82.341,153.008z"/>
			<path fill="#0098FF" d="M126.666,200.524c-1.391,0.863-5.254,1.896-11.084,1.894c-16.583,0.117-33.331-9.467-33.564-24.298
				c0.159-17.721,20.412-25.809,34.551-25.762c5.688-0.001,9.308,0.967,10.618,1.964c-2.468,2.656-4.614,5.455-6.437,8.343
				c-1.819-0.939-4.555-1.793-8.515-1.793c-8.379-0.001-18.464,5.13-18.703,16.565c0.128,10.304,9.213,16.356,18.775,16.338
				c3.386,0,6.712-0.64,8.595-1.577C122.5,195.082,124.421,197.875,126.666,200.524z"/>
			<path fill="#0098FF" d="M145.699,153.008c-3.901,5.626-6.3,11.96-7.199,18.456c6.024,0,12.049,0,18.073,0
				c0.898-6.496,3.298-12.83,7.199-18.456c3.648,0,7.297,0,10.945,0c-10.151,14.643-10.136,34.07,0.045,48.698
				c-3.648,0-7.297,0-10.945,0c-4.26-6.121-6.74-13.081-7.44-20.18c-6.024,0-12.049,0-18.073,0c0.701,7.099,3.181,14.059,7.44,20.18
				c-3.648,0-7.297,0-10.945,0c-10.181-14.628-10.196-34.056-0.045-48.698C138.402,153.008,142.051,153.008,145.699,153.008z"/>
			<path fill="#0098FF" d="M189.81,189.655c0.122,4.225,0.913,8.296,2.374,12.051c-3.769,0-7.537,0-11.305,0
				c-5.261-14.628-0.355-34.056,14.716-48.698c4.8,0,9.601,0,14.401,0c-5.11,14.643-0.055,34.07,15.167,48.698
				c-3.96,0-7.921,0-11.881,0c-3.861-3.755-7.053-7.826-9.575-12.051C199.074,189.655,194.442,189.655,189.81,189.655z
				 M200.477,181.148c-1.332-3.602-2.205-7.236-2.621-10.812c-0.394-3.004-0.2-6.695,0.301-9.535c-0.048,0-0.096,0-0.144,0
				c-1.945,2.838-3.735,6.604-4.981,9.535c-1.552,3.575-2.647,7.209-3.284,10.812C193.324,181.148,196.901,181.148,200.477,181.148z
				"/>
			<path fill="#0098FF" d="M252.979,181.299c-5.952,0-11.905,0-17.857,0c0.376,4.029,1.325,8.017,2.847,11.833
				c6.648,0,13.297,0,19.945,0c1.189,2.982,2.727,5.86,4.616,8.573c-10.297,0-20.594,0-30.891,0
				c-10.181-14.628-10.196-34.056-0.045-48.698c9.961,0,19.922,0,29.883,0c-1.883,2.715-3.416,5.596-4.599,8.58
				c-6.312,0-12.625,0-18.938,0c-1.325,3.341-2.211,6.813-2.66,10.328c5.953,0,11.905,0,17.857,0
				C252.74,175.029,252.688,178.177,252.979,181.299z"/>
			<path fill="#0098FF" d="M270.041,153.008c3.648,0,7.297,0,10.945,0c-8.223,11.862-9.775,26.863-4.655,39.911
				c6.433,0,12.865,0,19.297,0c1.2,3.059,2.767,6.01,4.701,8.788c-10.081,0-20.162,0-30.243,0
				C259.905,187.078,259.89,167.65,270.041,153.008z"/>
			<path fill="#0098FF" d="M355.169,183.335c-1.123-6.079-0.883-13.665,1.762-20.742c-0.049,0-0.096,0-0.145,0
				c-3.936,6.198-6.691,13.582-7.818,19.537c-1.221,6.612-0.895,13.087,0.98,18.856c-2.856,0-5.712,0-8.569,0
				c-5.527-5.703-9.542-12.096-12.044-18.63c-2.36-6.027-3.244-13.419-2.071-19.763c-0.048,0-0.096,0-0.145,0
				c-2.722,6.557-3.687,14.582-2.963,20.893c0.622,6.416,2.709,12.664,6.265,18.22c-3.384,0-6.769,0-10.153,0
				c-9.149-14.628-8.132-34.056,3.051-48.698c4.872,0,9.745,0,14.617,0c-1.805,4.888-2.476,10.31-2.015,15.908
				c0.39,5.819,1.915,12.294,4.395,18.158c0.096,0,0.193,0,0.289,0c-0.123-5.787,1.481-12.642,4.331-18.233
				c2.832-5.571,6.787-10.966,11.865-15.833c4.801,0,9.602,0,14.4,0c-9.287,14.643-8.406,34.07,2.639,48.698
				c-3.553,0-7.105,0-10.658,0C359.023,196.106,356.351,189.804,355.169,183.335z"/>
			<path fill="#0098FF" d="M403.673,181.299c-5.953,0-11.906,0-17.857,0c0.375,4.029,1.324,8.017,2.846,11.833
				c6.648,0,13.297,0,19.945,0c1.189,2.982,2.729,5.86,4.615,8.573c-10.297,0-20.594,0-30.891,0
				c-10.18-14.628-10.195-34.056-0.045-48.698c9.961,0,19.922,0,29.883,0c-1.883,2.715-3.416,5.596-4.598,8.58
				c-6.312,0-12.625,0-18.938,0c-1.326,3.341-2.213,6.813-2.66,10.328c5.951,0,11.904,0,17.857,0
				C403.435,175.029,403.382,178.177,403.673,181.299z"/>
			<path fill="#0098FF" d="M457.492,176.832c0.15,17.12-0.963,25.654-15.684,25.587c-14.156,0.133-30.943-9.826-30.979-24.753
				c-0.135-15.627,17.744-25.568,31.771-25.436C457.619,152.083,457.49,162.357,457.492,176.832z M422.421,177.438
				c0.064,10.163,8.062,16.792,15.283,16.764c7.514,0.036,8.16-6.975,8.191-16.991c-0.064-9.335-0.594-16.809-8.191-16.764
				C430.312,160.411,422.39,167.421,422.421,177.438z"/>
			<path fill="#0098FF" d="M479.675,201.706c-14.02-14.628-17.875-34.056-11.564-48.698c3.912,0,7.824,0,11.736,0
				c-2.947,6.018-4.178,12.844-3.691,19.812c0.373,6.123,2.273,12.772,4.734,17.712c0.047,0,0.096,0,0.143,0
				c-0.947-5.313-0.596-11.519,1.332-17.863c2.125-6.917,5.941-13.688,11.451-19.662c3.889,0,7.777,0,11.666,0
				c-2.982,6.17-4.158,13.189-3.529,20.341c0.547,5.97,1.984,11.489,4.428,16.964c0.049,0,0.096,0,0.145,0
				c-1.031-5.469-0.641-11.528,1.041-17.644c2.078-6.917,5.848-13.688,11.309-19.662c3.721,0,7.441,0,11.16,0
				c-14.326,14.643-18.488,34.07-12.482,48.698c-3.961,0-7.922,0-11.883,0c-5.748-6.294-9.613-13.477-11.598-20.784
				c-1.33-5.136-1.768-9.974-0.729-15.635c-0.047,0-0.096,0-0.143,0c-2.467,5.586-3.635,10.499-4.387,15.635
				c-0.92,7.308,0.043,14.49,2.887,20.784C487.693,201.706,483.685,201.706,479.675,201.706z"/>
		</g>
	</g>
	<g>
		<g>
			<path fill="#FFFFFF" stroke="#008CFF" stroke-width="2" stroke-miterlimit="10" d="M59.749,184.215
				c0.657-6.084,0.001-13.657-2.542-20.761c-0.048,0-0.096,0-0.144,0c0.678,6.222-0.627,13.598-3.214,19.556
				c-2.687,6.615-6.863,13.103-12.527,18.937c-2.856,0-5.712,0-8.568,0c1.925-5.768,2.396-12.174,1.412-18.711
				c-0.837-6.03-3.095-13.413-6.625-19.782c-0.048,0-0.096,0-0.144,0c2.195,6.582,2.557,14.597,1.297,20.912
				c-1.21,6.42-3.831,12.685-7.861,18.31c-3.384,0-6.769,0-10.153,0c10.823-14.809,11.87-34.056,3.14-48.878
				c4.873,0,9.745,0,14.617,0c4.843,4.948,8.597,10.389,11.26,15.994c2.733,5.827,4.091,12.294,3.825,18.166
				c0.096,0,0.192,0,0.288,0c2.659-5.796,4.365-12.643,4.874-18.241c0.619-5.578,0.159-10.993-1.381-15.919
				c4.801,0,9.601,0,14.401,0c10.626,14.822,11.476,34.069,2.549,48.878c-3.552,0-7.105,0-10.657,0
				C57.079,197.007,59.13,190.688,59.749,184.215z"/>
			<path fill="#FFFFFF" stroke="#008CFF" stroke-width="2" stroke-miterlimit="10" d="M83.732,153.797
				c9.762,14.822,9.748,34.069-0.043,48.878c-3.648,0-7.297,0-10.945,0c9.791-14.809,9.805-34.056,0.043-48.878
				C76.435,153.797,80.083,153.797,83.732,153.797z"/>
			<path fill="#FFFFFF" stroke="#008CFF" stroke-width="2" stroke-miterlimit="10" d="M129.524,201.48
				c-2.475,0.873-7.8,1.918-13.635,1.917C98.925,203.504,98.08,193.81,98.305,179c-0.152-17.7,3.536-25.903,18.754-25.859
				c5.689-0.001,10.683,0.98,13.237,1.987c0.867,2.685,1.423,5.501,1.67,8.399c-2.488-0.942-5.931-1.8-9.892-1.8
				c-8.893-0.001-12.472,5.16-12.242,16.59c-0.124,10.298,2.441,16.381,12.314,16.363c3.383,0,7.248-0.643,9.815-1.583
				C131.459,195.991,130.647,198.802,129.524,201.48z"/>
			<path fill="#FFFFFF" stroke="#008CFF" stroke-width="2" stroke-miterlimit="10" d="M147.09,153.797
				c3.751,5.696,6.059,12.045,6.923,18.544c6.024,0,12.049,0,18.073,0c-0.864-6.5-3.171-12.849-6.923-18.544
				c3.648,0,7.297,0,10.945,0c9.762,14.822,9.748,34.069-0.043,48.878c-3.648,0-7.297,0-10.945,0
				c4.096-6.196,6.481-13.169,7.155-20.27c-6.024,0-12.049,0-18.073,0c-0.674,7.101-3.059,14.074-7.155,20.27
				c-3.648,0-7.297,0-10.945,0c9.791-14.809,9.805-34.056,0.043-48.878C139.793,153.797,143.441,153.797,147.09,153.797z"/>
			<path fill="#FFFFFF" stroke="#008CFF" stroke-width="2" stroke-miterlimit="10" d="M202.549,190.545
				c-2.377,4.236-5.398,8.33-9.063,12.13c-3.769,0-7.537,0-11.305,0c14.711-14.809,19.646-34.056,14.805-48.878
				c4.8,0,9.601,0,14.401,0c14.802,14.822,19.829,34.069,15.078,48.878c-3.96,0-7.921,0-11.881,0
				c1.265-3.801,1.886-7.895,1.863-12.13C211.813,190.545,207.181,190.545,202.549,190.545z M216.444,182.028
				c-0.697-3.603-1.835-7.236-3.412-10.814c-1.316-3.007-3.197-6.705-5.092-9.559c-0.048,0-0.096,0-0.144,0
				c0.458,2.853,0.767,6.626,0.412,9.559c-0.391,3.578-1.222,7.211-2.493,10.814C209.292,182.028,212.868,182.028,216.444,182.028z"
				/>
			<path fill="#FFFFFF" stroke="#008CFF" stroke-width="2" stroke-miterlimit="10" d="M268.919,182.179c-5.953,0-11.905,0-17.857,0
				c-0.362,4.03-1.274,8.022-2.738,11.855c6.648,0,13.297,0,19.945,0c-1.143,2.996-2.623,5.895-4.438,8.641
				c-10.297,0-20.594,0-30.891,0c9.791-14.809,9.805-34.056,0.043-48.878c9.961,0,19.922,0,29.883,0
				c1.811,2.749,3.285,5.65,4.423,8.647c-6.312,0-12.625,0-18.938,0c1.274,3.356,2.127,6.833,2.558,10.35c5.953,0,11.905,0,17.857,0
				C269.148,175.909,269.199,179.055,268.919,182.179z"/>
			<path fill="#FFFFFF" stroke="#008CFF" stroke-width="2" stroke-miterlimit="10" d="M271.431,153.797c3.648,0,7.297,0,10.945,0
				c7.908,12.007,9.4,26.918,4.477,40.022c6.432,0,12.865,0,19.297,0c-1.154,3.072-2.661,6.044-4.521,8.856
				c-10.081,0-20.162,0-30.243,0C281.179,187.866,281.193,168.619,271.431,153.797z"/>
			<path fill="#FFFFFF" stroke="#008CFF" stroke-width="2" stroke-miterlimit="10" d="M370.64,184.215
				c0.656-6.084,0-13.657-2.543-20.761c-0.049,0-0.096,0-0.145,0c0.68,6.222-0.627,13.598-3.213,19.556
				c-2.688,6.615-6.863,13.103-12.527,18.937c-2.855,0-5.712,0-8.568,0c1.925-5.768,2.396-12.174,1.412-18.711
				c-0.837-6.03-3.095-13.413-6.625-19.782c-0.048,0-0.097,0-0.145,0c2.196,6.582,2.557,14.597,1.298,20.912
				c-1.21,6.42-3.831,12.685-7.862,18.31c-3.384,0-6.769,0-10.153,0c10.823-14.809,11.87-34.056,3.14-48.878
				c4.873,0,9.745,0,14.617,0c4.843,4.948,8.596,10.389,11.26,15.994c2.732,5.827,4.092,12.294,3.824,18.166
				c0.096,0,0.193,0,0.289,0c2.658-5.796,4.365-12.643,4.873-18.241c0.619-5.578,0.16-10.993-1.381-15.919c4.801,0,9.602,0,14.4,0
				c10.627,14.822,11.477,34.069,2.551,48.878c-3.553,0-7.105,0-10.658,0C367.97,197.007,370.021,190.688,370.64,184.215z"/>
			<path fill="#FFFFFF" stroke="#008CFF" stroke-width="2" stroke-miterlimit="10" d="M419.613,182.179c-5.951,0-11.904,0-17.857,0
				c-0.361,4.03-1.273,8.022-2.736,11.855c6.648,0,13.297,0,19.945,0c-1.145,2.996-2.623,5.895-4.439,8.641
				c-10.297,0-20.594,0-30.891,0c9.791-14.809,9.805-34.056,0.043-48.878c9.961,0,19.922,0,29.883,0
				c1.811,2.749,3.285,5.65,4.424,8.647c-6.312,0-12.625,0-18.938,0c1.273,3.356,2.127,6.833,2.557,10.35c5.953,0,11.906,0,17.857,0
				C419.843,175.909,419.894,179.055,419.613,182.179z"/>
			<path fill="#FFFFFF" stroke="#008CFF" stroke-width="2" stroke-miterlimit="10" d="M473.789,177.71
				c-0.146,17.098-17.859,25.749-31.672,25.687c-14.496,0.123-15.021-9.948-14.986-24.853c0.129-15.604,1.299-25.657,15.779-25.535
				C457.705,152.873,473.791,163.258,473.789,177.71z M438.724,178.317c-0.062,10.156,1.006,16.818,8.467,16.792
				c7.324,0.034,15.039-7.009,15.008-17.019c0.062-9.329-7.482-16.833-15.008-16.792
				C439.611,161.264,438.755,168.307,438.724,178.317z"/>
			<path fill="#FFFFFF" stroke="#008CFF" stroke-width="2" stroke-miterlimit="10" d="M480.978,202.675
				c5.951-14.809,2.125-34.056-11.477-48.878c3.912,0,7.824,0,11.736,0c5.236,6.092,8.82,12.931,10.754,19.902
				c1.76,6.124,1.91,12.769,1.098,17.726c0.049,0,0.096,0,0.145,0c2.465-5.329,4.389-11.53,4.936-17.876
				c0.641-6.919-0.348-13.703-2.963-19.751c3.889,0,7.777,0,11.666,0c5.408,6.246,9.082,13.277,11.021,20.431
				c1.592,5.972,1.764,11.486,0.826,16.977c0.047,0,0.096,0,0.143,0c2.406-5.485,4.148-11.54,4.508-17.657
				c0.594-6.919-0.441-13.703-3.105-19.751c3.721,0,7.441,0,11.16,0c5.586,14.822,1.396,34.069-12.57,48.878
				c-3.961,0-7.922,0-11.883,0c2.846-6.372,3.879-13.565,3.105-20.875c-0.559-5.137-1.691-9.97-3.822-15.645
				c-0.049,0-0.096,0-0.145,0c0.678,5.599,0.246,10.507-1.291,15.645c-2.129,7.309-6.068,14.503-11.816,20.875
				C488.996,202.675,484.986,202.675,480.978,202.675z"/>
		</g>
	</g>
</g>
<polyline fill="none" points="283.458,426.308 335.208,426.308 335.208,411.808 283.458,411.808 "/>
<text transform="matrix(1 0 0 1 779.0415 476.6411)" font-family="'MyriadPro-Bold'" font-size="72">MICHAEL MEOW</text>
<g>
	<g>

			<ellipse transform="matrix(-0.1587 -0.9873 0.9873 -0.1587 -55.0906 173.1538)" fill="#FFFFFF" stroke="#FF0000" stroke-miterlimit="10" cx="46.23" cy="110.049" rx="2.882" ry="5.574"/>
		<polyline fill="#FFFFFF" stroke="#FF0000" stroke-miterlimit="10" points="40.727,110.935 38.829,99.134 49.835,97.364
			51.734,109.164 		"/>

			<ellipse transform="matrix(-0.1588 -0.9873 0.9873 -0.1588 -45.5736 157.653)" fill="#FFFFFF" stroke="#FF0000" stroke-miterlimit="10" cx="44.375" cy="98.241" rx="2.883" ry="5.574"/>
	</g>
	<g>

			<ellipse transform="matrix(-0.225 0.9744 -0.9744 -0.225 120.0524 66.3847)" fill="#FFFFFF" stroke="#FF0000" stroke-miterlimit="10" cx="33.624" cy="80.939" rx="2.882" ry="5.574"/>
		<polyline fill="#FFFFFF" stroke="#FF0000" stroke-miterlimit="10" points="39.054,82.194 30.104,120.959 19.243,118.451
			28.193,79.685 		"/>

			<ellipse transform="matrix(-0.2252 0.9743 -0.9743 -0.2252 146.8596 122.6233)" fill="#FFFFFF" stroke="#FF0000" stroke-miterlimit="10" cx="24.673" cy="119.705" rx="2.883" ry="5.573"/>
	</g>
	<g>

			<ellipse transform="matrix(0.3014 0.9535 -0.9535 0.3014 113.499 3.8052)" fill="#FFFFFF" stroke="#FF0000" stroke-miterlimit="10" cx="54.153" cy="79.354" rx="2.883" ry="5.574"/>
		<polyline fill="#FFFFFF" stroke="#FF0000" stroke-miterlimit="10" points="59.467,77.675 71.459,115.611 60.83,118.969
			48.838,81.034 		"/>

			<ellipse transform="matrix(0.3011 0.9536 -0.9536 0.3011 158.0701 18.895)" fill="#FFFFFF" stroke="#FF0000" stroke-miterlimit="10" cx="66.144" cy="117.29" rx="2.883" ry="5.573"/>
	</g>
	<g>

			<ellipse transform="matrix(-0.1586 -0.9873 0.9873 -0.1586 491.4135 622.5486)" fill="#FFFFFF" stroke="#FF0000" stroke-miterlimit="10" cx="510.978" cy="101.88" rx="2.882" ry="5.575"/>
		<polyline fill="#FFFFFF" stroke="#FF0000" stroke-miterlimit="10" points="505.474,102.766 503.576,90.965 514.583,89.195
			516.482,100.995 		"/>
		<path fill="#FFFFFF" stroke="#FF0000" stroke-miterlimit="10" d="M508.665,87.226c3.04-0.489,5.709,0.39,5.962,1.962
			c0.252,1.572-2.006,3.242-5.047,3.73c-3.037,0.489-5.707-0.389-5.961-1.961C503.367,89.385,505.625,87.715,508.665,87.226z"/>
	</g>
	<g>

			<ellipse transform="matrix(0.2948 0.9556 -0.9556 0.2948 423.1776 -409.6814)" fill="#FFFFFF" stroke="#FF0000" stroke-miterlimit="10" cx="489.137" cy="81.851" rx="2.882" ry="5.574"/>
		<polyline fill="#FFFFFF" stroke="#FF0000" stroke-miterlimit="10" points="494.463,80.209 506.19,118.227 495.538,121.512
			483.811,83.494 		"/>

			<ellipse transform="matrix(0.2946 0.9556 -0.9556 0.2946 467.8864 -394.0819)" fill="#FFFFFF" stroke="#FF0000" stroke-miterlimit="10" cx="500.864" cy="119.87" rx="2.883" ry="5.574"/>
	</g>
	<g>

			<ellipse transform="matrix(-0.2182 0.9759 -0.9759 -0.2182 723.5853 -420.7827)" fill="#FFFFFF" stroke="#FF0000" stroke-miterlimit="10" cx="530.34" cy="79.446" rx="2.882" ry="5.575"/>
		<polyline fill="#FFFFFF" stroke="#FF0000" stroke-miterlimit="10" points="535.778,80.663 527.101,119.491 516.222,117.058
			524.9,78.23 		"/>

			<ellipse transform="matrix(-0.2185 0.9758 -0.9758 -0.2185 751.0551 -364.9409)" fill="#FFFFFF" stroke="#FF0000" stroke-miterlimit="10" cx="521.661" cy="118.274" rx="2.883" ry="5.573"/>
	</g>
	<g>

			<ellipse transform="matrix(-0.9987 -0.0504 0.0504 -0.9987 916.8315 189.4681)" fill="#FFFFFF" stroke="#FF0000" stroke-miterlimit="10" cx="460.805" cy="83.174" rx="2.882" ry="5.574"/>
		<polyline fill="#FFFFFF" stroke="#FF0000" stroke-miterlimit="10" points="460.525,88.741 448.586,88.137 449.149,77.005
			461.085,77.607 		"/>

			<ellipse transform="matrix(-0.9987 -0.0503 0.0503 -0.9987 893.019 187.5363)" fill="#FFFFFF" stroke="#FF0000" stroke-miterlimit="10" cx="448.87" cy="82.527" rx="2.882" ry="5.574"/>
	</g>
	<g>

			<ellipse transform="matrix(0.1392 0.9903 -0.9903 0.1392 153.4086 -16.8513)" fill="#FFFFFF" stroke="#FF0000" stroke-miterlimit="10" cx="86.397" cy="79.811" rx="2.883" ry="5.574"/>
		<polyline fill="#FFFFFF" stroke="#FF0000" stroke-miterlimit="10" points="91.916,79.036 97.451,118.436 86.411,119.985
			80.877,80.586 		"/>

			<ellipse transform="matrix(0.139 0.9903 -0.9903 0.139 197.208 11.6058)" fill="#FFFFFF" stroke="#FF0000" stroke-miterlimit="10" cx="91.93" cy="119.21" rx="2.883" ry="5.573"/>
	</g>
	<g>

			<ellipse transform="matrix(-1 0.0075 -0.0075 -1 345.7469 196.4573)" fill="#FFFFFF" stroke="#FF0000" stroke-miterlimit="10" cx="172.507" cy="98.873" rx="2.882" ry="5.575"/>
		<polyline fill="#FFFFFF" stroke="#FF0000" stroke-miterlimit="10" points="172.461,104.462 162.598,104.54 162.512,93.392
			172.375,93.313 		"/>

			<ellipse transform="matrix(-1 0.0076 -0.0076 -1 325.8577 196.6039)" fill="#FFFFFF" stroke="#FF0000" stroke-miterlimit="10" cx="162.554" cy="98.923" rx="2.883" ry="5.575"/>
	</g>
	<g>
		<path fill="#FFFFFF" stroke="#FF0000" stroke-miterlimit="10" d="M209.83,84.269c-3.006-0.666-5.165-2.464-4.82-4.02
			c0.346-1.554,3.06-2.275,6.066-1.609c3.003,0.665,5.162,2.465,4.818,4.02C215.549,84.214,212.833,84.936,209.83,84.269z"/>
		<polyline fill="#FFFFFF" stroke="#FF0000" stroke-miterlimit="10" points="215.894,82.66 207.292,121.504 196.408,119.094
			205.009,80.25 		"/>

			<ellipse transform="matrix(-0.2165 0.9763 -0.9763 -0.2165 362.9893 -50.7236)" fill="#FFFFFF" stroke="#FF0000" stroke-miterlimit="10" cx="201.849" cy="120.299" rx="2.883" ry="5.573"/>
	</g>
	<g>
		<path fill="#FFFFFF" stroke="#FF0000" stroke-miterlimit="10" d="M222.034,95.521c-2.892,1.056-5.68,0.702-6.226-0.794
			c-0.545-1.496,1.354-3.564,4.247-4.621c2.889-1.055,5.678-0.7,6.225,0.795C226.826,92.397,224.924,94.467,222.034,95.521z"/>
		<polyline fill="#FFFFFF" stroke="#FF0000" stroke-miterlimit="10" points="226.38,91.029 236.043,117.482 225.573,121.307
			215.909,94.854 		"/>

			<ellipse transform="matrix(0.3428 0.9394 -0.9394 0.3428 263.8393 -138.3578)" fill="#FFFFFF" stroke="#FF0000" stroke-miterlimit="10" cx="230.808" cy="119.395" rx="2.883" ry="5.573"/>
	</g>
	<g>

			<ellipse transform="matrix(0.0513 0.9987 -0.9987 0.0513 225.2308 -71.2425)" fill="#FFFFFF" stroke="#FF0000" stroke-miterlimit="10" cx="150.114" cy="82.93" rx="2.883" ry="5.573"/>
		<polyline fill="#FFFFFF" stroke="#FF0000" stroke-miterlimit="10" points="155.68,82.644 157.725,122.377 146.591,122.949
			144.548,83.216 		"/>

			<ellipse transform="matrix(0.0511 0.9987 -0.9987 0.0511 266.8776 -35.5696)" fill="#FFFFFF" stroke="#FF0000" stroke-miterlimit="10" cx="152.158" cy="122.663" rx="2.883" ry="5.574"/>
	</g>
	<g>

			<ellipse transform="matrix(-0.9985 0.0546 -0.0546 -0.9985 548.6121 182.252)" fill="#FFFFFF" stroke="#FF0000" stroke-miterlimit="10" cx="271.814" cy="98.626" rx="2.882" ry="5.575"/>
		<polyline fill="#FFFFFF" stroke="#FF0000" stroke-miterlimit="10" points="272.032,104.211 262.183,104.754 261.572,93.623
			271.42,93.079 		"/>

			<ellipse transform="matrix(-0.9985 0.0548 -0.0548 -0.9985 528.7892 183.7922)" fill="#FFFFFF" stroke="#FF0000" stroke-miterlimit="10" cx="261.875" cy="99.145" rx="2.883" ry="5.575"/>
	</g>
	<g>

			<ellipse transform="matrix(-0.9985 0.0546 -0.0546 -0.9985 544.8745 150.1224)" fill="#FFFFFF" stroke="#FF0000" stroke-miterlimit="10" cx="270.385" cy="82.509" rx="2.882" ry="5.575"/>
		<polyline fill="#FFFFFF" stroke="#FF0000" stroke-miterlimit="10" points="270.603,88.094 260.754,88.637 260.143,77.506
			269.992,76.962 		"/>
		<path fill="#FFFFFF" stroke="#FF0000" stroke-miterlimit="10" d="M257.567,83.187c-0.169-3.074,0.983-5.637,2.573-5.725
			c1.59-0.087,3.016,2.333,3.184,5.409c0.17,3.071-0.981,5.635-2.572,5.724C259.162,88.681,257.736,86.261,257.567,83.187z"/>
	</g>
	<g>

			<ellipse transform="matrix(-0.9985 0.0546 -0.0546 -0.9985 550.811 216.172)" fill="#FFFFFF" stroke="#FF0000" stroke-miterlimit="10" cx="272.451" cy="115.615" rx="2.882" ry="5.575"/>
		<polyline fill="#FFFFFF" stroke="#FF0000" stroke-miterlimit="10" points="272.668,121.2 262.82,121.743 262.208,110.612
			272.057,110.068 		"/>
		<path fill="#FFFFFF" stroke="#FF0000" stroke-miterlimit="10" d="M259.632,116.292c-0.169-3.074,0.983-5.637,2.573-5.725
			c1.59-0.087,3.016,2.333,3.184,5.409c0.17,3.071-0.982,5.635-2.572,5.724C261.227,121.787,259.801,119.367,259.632,116.292z"/>
	</g>
	<g>

			<ellipse transform="matrix(0.0513 0.9987 -0.9987 0.0513 315.5469 -171.3192)" fill="#FFFFFF" stroke="#FF0000" stroke-miterlimit="10" cx="247.948" cy="80.43" rx="2.883" ry="5.573"/>
		<polyline fill="#FFFFFF" stroke="#FF0000" stroke-miterlimit="10" points="253.514,80.144 255.559,119.877 244.425,120.449
			242.382,80.716 		"/>

			<ellipse transform="matrix(0.0511 0.9987 -0.9987 0.0511 357.2111 -135.6477)" fill="#FFFFFF" stroke="#FF0000" stroke-miterlimit="10" cx="249.992" cy="120.163" rx="2.883" ry="5.574"/>
	</g>
	<g>

			<ellipse transform="matrix(-0.1587 -0.9873 0.9873 -0.1587 305.238 484.1817)" fill="#FFFFFF" stroke="#FF0000" stroke-miterlimit="10" cx="358.896" cy="112.049" rx="2.882" ry="5.574"/>
		<polyline fill="#FFFFFF" stroke="#FF0000" stroke-miterlimit="10" points="353.393,112.935 351.495,101.134 362.5,99.364
			364.4,111.164 		"/>

			<ellipse transform="matrix(-0.1589 -0.9873 0.9873 -0.1589 314.7975 468.6727)" fill="#FFFFFF" stroke="#FF0000" stroke-miterlimit="10" cx="357.041" cy="100.241" rx="2.883" ry="5.574"/>
	</g>
	<g>

			<ellipse transform="matrix(-0.1587 -0.9873 0.9873 -0.1587 407.1257 556.5368)" fill="#FFFFFF" stroke="#FF0000" stroke-miterlimit="10" cx="440.666" cy="104.819" rx="2.882" ry="5.574"/>
		<polyline fill="#FFFFFF" stroke="#FF0000" stroke-miterlimit="10" points="435.163,105.705 433.264,93.904 444.27,92.134
			446.169,103.934 		"/>

			<ellipse transform="matrix(-0.1589 -0.9873 0.9873 -0.1589 416.6964 541.025)" fill="#FFFFFF" stroke="#FF0000" stroke-miterlimit="10" cx="438.81" cy="93.011" rx="2.883" ry="5.574"/>
	</g>
	<g>

			<ellipse transform="matrix(0.2761 -0.9611 0.9611 0.2761 236.3057 527.3255)" fill="#FFFFFF" stroke="#FF0000" stroke-miterlimit="10" cx="468.232" cy="106.785" rx="2.882" ry="5.575"/>
		<polyline fill="#FFFFFF" stroke="#FF0000" stroke-miterlimit="10" points="462.875,105.247 466.173,93.758 476.887,96.835
			473.59,108.324 		"/>

			<ellipse transform="matrix(0.2759 -0.9612 0.9612 0.2759 249.8537 522.2799)" fill="#FFFFFF" stroke="#FF0000" stroke-miterlimit="10" cx="471.572" cy="95.308" rx="2.883" ry="5.575"/>
	</g>
	<g>

			<ellipse transform="matrix(-0.225 0.9744 -0.9744 -0.225 505.0034 -235.8168)" fill="#FFFFFF" stroke="#FF0000" stroke-miterlimit="10" cx="346.29" cy="82.939" rx="2.882" ry="5.574"/>
		<polyline fill="#FFFFFF" stroke="#FF0000" stroke-miterlimit="10" points="351.72,84.194 342.77,122.959 331.909,120.451
			340.859,81.685 		"/>

			<ellipse transform="matrix(-0.2253 0.9743 -0.9743 -0.2253 531.9117 -179.5449)" fill="#FFFFFF" stroke="#FF0000" stroke-miterlimit="10" cx="337.339" cy="121.705" rx="2.883" ry="5.574"/>
	</g>
	<g>

			<ellipse transform="matrix(0.3015 0.9535 -0.9535 0.3015 333.7896 -292.9235)" fill="#FFFFFF" stroke="#FF0000" stroke-miterlimit="10" cx="366.819" cy="81.354" rx="2.883" ry="5.574"/>
		<polyline fill="#FFFFFF" stroke="#FF0000" stroke-miterlimit="10" points="372.133,79.675 384.125,117.611 373.496,120.969
			361.504,83.034 		"/>

			<ellipse transform="matrix(0.3011 0.9536 -0.9536 0.3011 378.4846 -277.8586)" fill="#FFFFFF" stroke="#FF0000" stroke-miterlimit="10" cx="378.81" cy="119.29" rx="2.883" ry="5.573"/>
	</g>
	<g>

			<ellipse transform="matrix(-0.9985 0.0546 -0.0546 -0.9985 849.6846 172.6859)" fill="#FFFFFF" stroke="#FF0000" stroke-miterlimit="10" cx="422.481" cy="97.959" rx="2.882" ry="5.575"/>
		<polyline fill="#FFFFFF" stroke="#FF0000" stroke-miterlimit="10" points="422.699,103.544 412.85,104.087 412.239,92.956
			422.087,92.412 		"/>

			<ellipse transform="matrix(-0.9985 0.0548 -0.0548 -0.9985 829.8603 174.2035)" fill="#FFFFFF" stroke="#FF0000" stroke-miterlimit="10" cx="412.542" cy="98.478" rx="2.883" ry="5.575"/>
	</g>
	<g>

			<ellipse transform="matrix(-0.9985 0.0546 -0.0546 -0.9985 845.947 140.5577)" fill="#FFFFFF" stroke="#FF0000" stroke-miterlimit="10" cx="421.052" cy="81.842" rx="2.882" ry="5.575"/>
		<polyline fill="#FFFFFF" stroke="#FF0000" stroke-miterlimit="10" points="421.27,87.427 411.421,87.97 410.81,76.839
			420.659,76.295 		"/>
		<path fill="#FFFFFF" stroke="#FF0000" stroke-miterlimit="10" d="M408.234,82.52c-0.169-3.074,0.983-5.637,2.573-5.725
			c1.59-0.087,3.016,2.333,3.184,5.409c0.17,3.071-0.981,5.635-2.572,5.724C409.829,88.014,408.403,85.594,408.234,82.52z"/>
	</g>
	<g>

			<ellipse transform="matrix(-0.9985 0.0546 -0.0546 -0.9985 851.8835 206.6073)" fill="#FFFFFF" stroke="#FF0000" stroke-miterlimit="10" cx="423.118" cy="114.948" rx="2.882" ry="5.575"/>
		<polyline fill="#FFFFFF" stroke="#FF0000" stroke-miterlimit="10" points="423.335,120.533 413.487,121.076 412.875,109.945
			422.724,109.401 		"/>
		<path fill="#FFFFFF" stroke="#FF0000" stroke-miterlimit="10" d="M410.299,115.625c-0.169-3.074,0.983-5.637,2.573-5.725
			c1.59-0.087,3.016,2.333,3.184,5.409c0.17,3.071-0.982,5.635-2.572,5.724C411.894,121.12,410.468,118.7,410.299,115.625z"/>
	</g>
	<g>

			<ellipse transform="matrix(0.0513 0.9987 -0.9987 0.0513 457.8151 -322.4204)" fill="#FFFFFF" stroke="#FF0000" stroke-miterlimit="10" cx="398.615" cy="79.763" rx="2.883" ry="5.573"/>
		<polyline fill="#FFFFFF" stroke="#FF0000" stroke-miterlimit="10" points="404.181,79.477 406.226,119.21 395.092,119.782
			393.049,80.049 		"/>

			<ellipse transform="matrix(0.0511 0.9987 -0.9987 0.0511 499.506 -286.7504)" fill="#FFFFFF" stroke="#FF0000" stroke-miterlimit="10" cx="400.659" cy="119.496" rx="2.883" ry="5.574"/>
	</g>
	<g>

			<ellipse transform="matrix(0.3022 0.9532 -0.9532 0.3022 278.7127 -213.2322)" fill="#FFFFFF" stroke="#FF0000" stroke-miterlimit="10" cx="285" cy="83.753" rx="2.883" ry="5.573"/>
		<polyline fill="#FFFFFF" stroke="#FF0000" stroke-miterlimit="10" points="290.313,82.068 302.343,119.991 291.717,123.362
			279.688,85.438 		"/>

			<ellipse transform="matrix(0.3021 0.9533 -0.9533 0.3021 323.2735 -198.2346)" fill="#FFFFFF" stroke="#FF0000" stroke-miterlimit="10" cx="297.03" cy="121.677" rx="2.883" ry="5.574"/>
	</g>
	<g>

			<ellipse transform="matrix(0.0513 0.9987 -0.9987 0.0513 255.1642 -107.0876)" fill="#FFFFFF" stroke="#FF0000" stroke-miterlimit="10" cx="183.948" cy="80.763" rx="2.883" ry="5.573"/>
		<polyline fill="#FFFFFF" stroke="#FF0000" stroke-miterlimit="10" points="189.514,80.477 191.559,120.21 180.425,120.782
			178.382,81.049 		"/>

			<ellipse transform="matrix(0.0511 0.9987 -0.9987 0.0511 296.817 -71.4155)" fill="#FFFFFF" stroke="#FF0000" stroke-miterlimit="10" cx="185.992" cy="120.496" rx="2.883" ry="5.574"/>
	</g>
	<g>

			<ellipse transform="matrix(-0.9719 -0.2353 0.2353 -0.9719 872.8938 342.2957)" fill="#FFFFFF" stroke="#FF0000" stroke-miterlimit="10" cx="456.867" cy="119.075" rx="2.882" ry="5.575"/>
		<polyline fill="#FFFFFF" stroke="#FF0000" stroke-miterlimit="10" points="455.466,124.486 445.878,122.169 448.5,111.333
			458.087,113.649 		"/>

			<ellipse transform="matrix(-0.972 -0.2352 0.2352 -0.972 854.411 335.3072)" fill="#FFFFFF" stroke="#FF0000" stroke-miterlimit="10" cx="447.198" cy="116.709" rx="2.883" ry="5.575"/>
	</g>
	<g>

			<ellipse transform="matrix(0.7819 0.6234 -0.6234 0.7819 80.9471 -44.252)" fill="#FFFFFF" stroke="#FF0000" stroke-miterlimit="10" cx="103.72" cy="93.566" rx="2.883" ry="5.574"/>
		<polyline fill="#FFFFFF" stroke="#FF0000" stroke-miterlimit="10" points="107.195,89.209 138.301,114.015 131.351,122.73
			100.245,97.924 		"/>

			<ellipse transform="matrix(0.7818 0.6236 -0.6236 0.7818 103.2387 -58.241)" fill="#FFFFFF" stroke="#FF0000" stroke-miterlimit="10" cx="134.826" cy="118.372" rx="2.883" ry="5.574"/>
	</g>
	<g>

			<ellipse transform="matrix(-0.748 0.6637 -0.6637 -0.748 287.586 47.4714)" fill="#FFFFFF" stroke="#FF0000" stroke-miterlimit="10" cx="134.78" cy="78.336" rx="2.883" ry="5.574"/>
		<polyline fill="#FFFFFF" stroke="#FF0000" stroke-miterlimit="10" points="138.479,82.502 108.722,108.913 101.322,100.573
			131.082,74.166 		"/>

			<ellipse transform="matrix(-0.7482 0.6635 -0.6635 -0.7482 253.0944 113.4256)" fill="#FFFFFF" stroke="#FF0000" stroke-miterlimit="10" cx="105.023" cy="104.742" rx="2.883" ry="5.575"/>
	</g>
	<g>

			<ellipse transform="matrix(-0.9949 0.1012 -0.1012 -0.9949 654.9362 179.1777)" fill="#FFFFFF" stroke="#FF0000" stroke-miterlimit="10" cx="322.923" cy="106.201" rx="2.883" ry="5.574"/>
		<polyline fill="#FFFFFF" stroke="#FF0000" stroke-miterlimit="10" points="323.487,111.744 283.905,115.769 282.778,104.677
			322.36,100.655 		"/>

			<ellipse transform="matrix(-0.9949 0.1008 -0.1008 -0.9949 576.3524 191.3244)" fill="#FFFFFF" stroke="#FF0000" stroke-miterlimit="10" cx="283.343" cy="110.223" rx="2.882" ry="5.575"/>
	</g>
</g>
<text transform="matrix(1 0 0 1 823.5415 546.6406)" font-family="'Helvetica-Light'" font-size="72">MICHAEL MEOW</text>
<g>
	<path fill="#FF0000" d="M2.915,52.037C2.83,50.34-0.032,50.25,0.576,47.464c0.161-0.738,1.664-1.469,1.713-2.455
		c0.065-1.306-1.329-1.582-1.553-2.643c-0.549-2.6,1.609-3.894,1.296-6.1c-0.138-0.974-1.493-1.264-1.695-2.147
		c-0.355-1.55,0.523-2.126,0.895-3.298c1.059-3.338,0.267-2.653-0.872-5.443c-1.276-3.126,1.207-2.572,1.671-5.286
		c0.381-2.227-1.791-3.49-1.279-6.082c0.205-1.037,1.256-1.24,1.201-2.643C1.895,9.856,0.679,9.88,0.423,8.734
		C-0.078,6.48,1.76,5.442,2.428,3.478c0.369-1.085-0.143-3.068,1.73-3.074c3.192-0.009,0.623,5.139,5.529,3.312
		c0.331,1.452-1.309,2.956-0.463,4.544c0.949,1.783,2.572,0.149,2.575,2.779c0.003,2.157-1.792,1.826-0.311,3.923
		c0.844,1.195,2.863,1.216,3.36,2.723c0.571,1.73-1.327,2.854-0.492,4.659c0.882,1.9,3.095,0.848,3.202,3.373
		c0.174,4.1-1.633,4.112,3.232,5.24c0.712,3.373-3.297,5.781,1.922,6.724c1.069,1.956-1.691,4.489-0.064,5.889
		c2.608,2.242,3.025-1.611,4.223-3.166c0.826-1.073,1.979-1.931,2.214-3.303c0.269-1.563-0.995-2.934-0.492-4.575
		c0.416-1.356,2.22-1.727,2.491-3.148c0.255-1.344-1.216-2.221-0.967-3.598c0.327-1.812,2.233-1.71,2.914-2.545
		c1.227-1.505,0.974-1.795,1.022-3.619c0.043-1.609-0.633-2.125,0.312-3.692c0.945-1.564,2.414-0.339,2.508-2.969
		c0.047-1.317-0.871-3.155-0.114-4.444c0.569-0.972,1.749-0.446,2.184-0.938c1.134-1.277-0.395-4.763,2.876-3.872
		c0.932,0.254,0.909,1.402,1.907,1.696c0.854,0.251,1.908,0.119,2.73-0.012c0.342,1.414-1.002,2.124-1.073,3.516
		c-0.083,1.622,1.543,3.052,1.719,4.665c0.146,1.33-0.729,2.059-0.792,3.062c-0.166,2.798,1.462,4.386,2.072,6.928
		c0.584,2.443-1.148,2.264-1.528,4.217c-0.523,2.696,4.579,7.719-0.336,8.95c-0.943,4.373,4.433,5.294-0.086,9.23
		c1.097,1.151,2.695,2.43,2.537,4.107c-2.993,0.284-2.506,2.99-4.818,3.514c-4.17,0.945-0.783-3.421-1.086-5.09
		c-0.308-1.696-1.918-1.638-1.495-3.7c0.25-1.217,1.78-1.775,1.847-3.149c0.09-1.842-1.711-3.256-1.13-5.304
		c0.325-1.148,2.145-1.71,2.278-2.856c0.115-0.972-1.08-1.984-1.392-2.802c-1.253-3.287,1.014-3.038,1.067-5.853
		c0.05-2.695-2.335-2.504-1.69-5.522c0.374-1.743,2.669-3.565-0.178-5.116c-3.172-1.727-3.295,7.947-4.625,9.917
		c-0.518,0.767-2.026,0.797-2.505,1.666c-0.716,1.295,0.096,2.296-0.003,3.555c-0.182,2.326-1.711,2.958-2.224,5.105
		c-0.263,1.101,0.713,2.046,0.328,3.21c-0.318,0.959-1.207,1.272-1.678,2.164c-0.802,1.516-0.02,3.609-0.781,4.988
		c-0.654,1.183-2.268,1.277-2.937,2.458c-0.759,1.338,0.001,3.956-0.887,5.138c-0.28,0.372-2.59,2.177-2.955,0.879
		c-0.243-0.865-0.906-1.517-1.072-2.457c-4-0.019-2.31-2.71-2.553-5.125c-4.255-0.918-1.336-3.042-1.852-5.179
		c-0.229-0.951-1.817-1.579-2.254-2.562c-0.572-1.287-0.296-2.968-0.385-4.418c-2.384-1.308-2.569-2.652-2.827-5.179
		c-0.152-1.491,0.171-1.691-0.391-3.13c-0.241-0.617-1.555-1.371-1.867-2.297c-0.379-1.128,0.436-2.68-0.047-3.796
		c-0.346-0.8-1.619-1.313-2.099-2.063c-0.852-1.336-1.368-6.351-3.217-5.3c-2.55,1.45,0.758,4.346,1.216,5.699
		c0.94,2.778-1.207,3.9-1.28,6.404c-0.044,1.5,0.872,1.923,0.943,3.204c0.094,1.708-0.539,1.81-0.854,3.29
		c-0.568,2.667,0.455,3.038,0.864,5.682c0.308,1.99-0.824,2.324-1.032,4.076c-0.227,1.915,1.377,2.546,1.367,4.234
		c-0.01,1.549-1.706,2.523-1.935,4.18c-0.185,1.339,2.218,3.888-1.595,2.873"/>
	<path fill="#FF0000" d="M325.485,52.379c-0.084-1.696-2.947-1.787-2.339-4.572c0.162-0.738,1.665-1.469,1.713-2.455
		c0.066-1.306-1.328-1.582-1.552-2.643c-0.549-2.6,1.609-3.894,1.296-6.1c-0.138-0.974-1.494-1.264-1.695-2.147
		c-0.355-1.55,0.523-2.126,0.895-3.297c1.059-3.338,0.268-2.653-0.872-5.443c-1.276-3.125,1.208-2.572,1.672-5.285
		c0.381-2.227-1.791-3.49-1.28-6.082c0.205-1.037,1.256-1.24,1.201-2.643c-0.06-1.513-1.275-1.488-1.53-2.634
		c-0.502-2.253,1.337-3.292,2.005-5.256c0.369-1.085-0.143-3.069,1.73-3.074c3.192-0.01,0.623,5.139,5.529,3.312
		c0.33,1.451-1.309,2.956-0.463,4.544c0.948,1.783,2.572,0.149,2.575,2.779c0.002,2.157-1.792,1.826-0.311,3.923
		c0.844,1.195,2.863,1.216,3.36,2.724c0.571,1.73-1.328,2.854-0.493,4.659c0.882,1.9,3.095,0.848,3.202,3.373
		c0.175,4.1-1.633,4.112,3.232,5.24c0.712,3.373-3.296,5.781,1.922,6.724c1.069,1.956-1.691,4.489-0.064,5.889
		c2.608,2.242,3.026-1.611,4.223-3.166c0.826-1.073,1.979-1.931,2.214-3.303c0.268-1.563-0.996-2.934-0.492-4.575
		c0.416-1.356,2.22-1.726,2.491-3.148c0.255-1.343-1.216-2.221-0.968-3.598c0.327-1.812,2.233-1.71,2.914-2.545
		c1.228-1.505,0.974-1.795,1.022-3.618c0.043-1.61-0.633-2.126,0.312-3.692c0.945-1.565,2.414-0.34,2.508-2.969
		c0.047-1.317-0.87-3.155-0.113-4.444c0.569-0.972,1.748-0.447,2.184-0.938c1.135-1.277-0.395-4.763,2.877-3.872
		c0.931,0.254,0.908,1.402,1.907,1.696c0.854,0.251,1.907,0.118,2.729-0.012c0.343,1.414-1.002,2.124-1.073,3.515
		c-0.083,1.622,1.543,3.053,1.72,4.665c0.146,1.331-0.729,2.06-0.793,3.062c-0.166,2.798,1.463,4.386,2.072,6.928
		c0.585,2.443-1.148,2.264-1.528,4.217c-0.523,2.696,4.579,7.719-0.337,8.95c-0.942,4.373,4.434,5.295-0.086,9.23
		c1.097,1.151,2.695,2.43,2.537,4.107c-2.993,0.284-2.506,2.99-4.818,3.514c-4.17,0.946-0.783-3.421-1.087-5.09
		c-0.308-1.696-1.918-1.638-1.495-3.7c0.25-1.216,1.78-1.775,1.848-3.149c0.09-1.843-1.712-3.256-1.131-5.304
		c0.325-1.148,2.145-1.71,2.278-2.857c0.115-0.972-1.079-1.984-1.392-2.802c-1.254-3.287,1.014-3.038,1.066-5.853
		c0.05-2.695-2.335-2.503-1.689-5.521c0.373-1.743,2.669-3.565-0.179-5.116c-3.173-1.727-3.295,7.947-4.625,9.917
		c-0.518,0.768-2.026,0.797-2.505,1.666c-0.716,1.295,0.096,2.296-0.003,3.556c-0.183,2.326-1.712,2.958-2.224,5.105
		c-0.263,1.1,0.713,2.046,0.327,3.21c-0.317,0.96-1.206,1.272-1.678,2.164c-0.803,1.516-0.021,3.609-0.781,4.988
		c-0.653,1.183-2.268,1.277-2.937,2.458c-0.76,1.339,0.001,3.956-0.887,5.138c-0.28,0.372-2.59,2.177-2.956,0.879
		c-0.243-0.865-0.906-1.517-1.072-2.457c-4-0.019-2.31-2.71-2.553-5.125c-4.255-0.918-1.335-3.042-1.852-5.178
		c-0.23-0.951-1.817-1.579-2.254-2.563c-0.572-1.287-0.296-2.967-0.386-4.418c-2.384-1.308-2.568-2.652-2.827-5.179
		c-0.152-1.491,0.171-1.69-0.391-3.13c-0.241-0.617-1.554-1.371-1.867-2.297c-0.379-1.128,0.435-2.68-0.047-3.795
		c-0.346-0.8-1.619-1.313-2.099-2.064c-0.852-1.336-1.368-6.35-3.217-5.3c-2.55,1.451,0.758,4.347,1.216,5.699
		c0.94,2.778-1.208,3.9-1.281,6.404c-0.044,1.5,0.873,1.923,0.943,3.204c0.094,1.708-0.539,1.81-0.854,3.29
		c-0.569,2.667,0.455,3.038,0.864,5.682c0.308,1.99-0.824,2.324-1.032,4.077c-0.227,1.915,1.377,2.546,1.367,4.233
		c-0.009,1.549-1.706,2.524-1.935,4.18c-0.185,1.339,2.218,3.889-1.595,2.874"/>
	<path fill="#FF0000" d="M63.189,1.557c-0.751,0.124-2.425,2.448-2.942,3.542c-0.96,2.032-0.494,2.399,0.54,4.144
		c1.125,1.898,1.475,2.781,0.541,4.815c-0.823,1.791-2.474,2.782-1.681,5.036c0.567,1.609,2.479,2.239,2.054,4.317
		c-0.377,1.843-2.217,2.675-2.113,4.804c0.111,2.272,1.501,2.158,2.4,3.843c1.077,2.019-0.198,2.699-1.247,4.311
		c-1.507,2.315-1.017,2.66,0.234,4.868c1.535,2.711,0.611,2.711-0.913,4.991c-1.5,2.245-1.104,3.287,0.486,4.978
		c0.805,0.856,2.944,3.467,4.328,2.898c1.887-0.775,0.323-3.307,0.235-4.514c-0.157-2.154,0.617-2.337,1.501-4.263
		c0.674-1.47,1.134-3.58,0.198-5.116c-1.228-2.015-2.519-1.074-1.512-3.89c0.619-1.732,1.794-3.069,1.207-5.177
		c-0.427-1.53-1.941-2.486-1.873-4.371c0.06-1.664,1.341-2.581,1.98-4.022c1.089-2.457,0.075-2.349-1.021-4.144
		c-2.069-3.387,3.231-4.777,0.906-8.586c-1.469-2.405-1.885-1.934-1.328-4.803c0.372-1.914,0.676-3.224-1.927-3.234
		c-0.379-0.002-0.451-0.058-0.774,0.053"/>
	<path fill="#FF0000" d="M113.383,15.726c1.233,2.709,5.796,2.437,4.389-1.267c-0.392-1.034-1.624-1.657-2.046-2.757
		c-0.509-1.328-0.14-3.25,0.022-4.585c-1.987-0.1-3.7,0.282-5.007-1.466c-1.132-1.514-1.047-4.561-3.602-4.159
		c-2.932,0.461-1.876,2.518-4.991,0.545C100.398,0.927,99.148-0.595,97,0.29c-1.738,0.715-2.274,2.617-4.271,2.946
		c-1.981,0.327-4.728-1.364-6.677-0.191c-1.926,1.159-1.087,3.11-3.17,4.275c-1.234,0.69-3.684,1.046-4.514,2.456
		c-1.017,1.726,0.695,3.619-0.356,5.662c-0.745,1.449-2.889,2.356-2.82,4.125c0.079,2.023,2.149,2.566,1.631,5.048
		c-0.348,1.671-2.195,2.767-2.533,4.377c-0.493,2.343,1.978,3.459,2.6,5.458c0.567,1.822-0.134,3.833-0.012,5.776
		c0.204,3.253,0.929,1.65,3.068,3.122c1.965,1.353,0.958,3.391,1.718,5.043c0.295,0.644,1.392,1.813,2.179,1.986
		c1.097,0.241,1.686-0.733,2.587-0.495c1.572,0.416,2.617,2.938,4.084,3.606c2.34,1.066,2.829-0.493,4.85-0.779
		c1.896-0.268,2.831,1.395,4.568,1.699c2.89,0.507,2.246-1.538,3.896-2.613c1.382-0.901,3.915-0.029,5.458-0.528
		c2.889-0.935,1.374-2.574,2.9-4.503c1.17-1.477,3.661-1.119,4.749-2.515c1.331-1.707-0.663-3.094-0.251-4.989
		c0.319-1.464,2.758-3.061,2.646-4.558c-0.155-2.068-2.977-1.967-4.327-1.02c-1.713,1.2-1.566,2.75-1.622,4.622
		c-0.092,3.09-0.502,2.153-2.695,3.303c-2.505,1.313-0.998,2.691-2.402,4.322c-1.337,1.554-3.698,0.284-5.421,1.548
		c-1.621,1.19-1.593,3.254-4.195,2.419c-1.251-0.4-1.307-1.74-3.059-1.744c-1.41-0.003-2.746,1.503-4.082,1.198
		c-1.929-0.441-0.952-2.117-2.103-3.18c-1.129-1.045-2.869-0.623-4.345-0.698c-0.086-1.973,0.626-3.582-1.051-4.954
		c-1.818-1.487-2.964-0.563-3.069-3.656c-0.072-2.143,0.933-3.728,0-5.77c-0.887-1.944-2.341-2.633-1.5-5.097
		c0.62-1.815,2.146-2.922,2.221-4.984c0.064-1.789-1.183-3.575-0.059-5.349c0.956-1.511,2.563-1.659,3.367-3.357
		c1.306-2.754,0.626-2.301,3.657-3.062c2.832-0.71,3.724-4.519,6.977-3.855c1.145,0.234,2.071,1.354,3.164,1.64
		c1.547,0.405,3.194-0.171,4.562-0.375c2.161-0.322,2.398-0.671,3.31,1.148c0.92,1.837,0.121,2.023,2.108,3.174
		c1.067,0.619,2.622,0.821,3.481,2.043c0.816,1.16,0.552,2.59,1.375,3.668"/>
	<path fill="#FF0000" d="M132.116,1.076c-2.426,0.434-5.623,2.948-4.814,5.775c0.427,1.495,2.035,1.759,1.464,3.844
		c-0.38,1.392-2.005,1.957-1.932,3.59c0.067,1.516,1.691,2.558,1.691,4.07c0,1.505-1.438,2.613-1.4,4.148
		c0.042,1.625,1.376,2.515,1.388,4.27c0.011,1.798-1.021,2.31-1.687,3.835c-1.826,4.18,2.128,5.634,1.939,9.374
		c-0.094,1.881-1.905,2.62-1.699,4.569c0.188,1.781,1.841,2.511,1.266,4.611c-0.365,1.333-2.479,3.154-0.965,4.695
		c1.91,1.946,7.917-2.438,7.156-5.235c-0.529-1.944-2.571-1.77-1.933-4.089c0.544-1.98,2.762-2.512,1.633-5.031
		c-0.855-1.91-2.817-2.043-1.87-4.556c0.471-1.247,1.691-2.041,1.681-3.453c-0.01-1.264-2.566-3.036-0.724-4.31
		c1.348-0.933,1.907,0.597,2.824,1.097c2.716,1.48,4.095-0.742,6.523-0.763c1.993-0.017,2.56,2.188,4.614,1.241
		c1.323-0.61,1.662-2.623,3.521-1.937c1.822,0.674,1.077,2.889,3.896,2.364c2.404-0.447,3.296-2.486,5.971-1.019
		c2.045,1.12,2.255,2.843,1.459,4.825c-0.337,0.839-1.419,1.498-1.304,2.505c0.129,1.131,1.496,1.104,1.746,2.137
		c0.278,1.148-0.446,1.53-0.841,2.414c-0.961,2.158-1.066,1.852,0.115,4.076c1.178,2.22,1.004,2.089-0.655,3.844
		c-1.54,1.63-2.282,2.186-0.007,3.6c5.118,3.183,7.454-2.39,5.578-6.835c-0.82-1.943,0.302-3.186,0.365-5.042
		c0.058-1.69-0.819-2.296-1.313-3.859c-0.743-2.354,0.262-2.466,1.075-4.555c0.985-2.527-0.979-3.161-0.9-5.704
		c0.06-1.944,2.139-3.284,2.075-5.028c-0.054-1.498-1.773-2.585-2.081-4.04c-0.447-2.11,1.38-2.801,1.746-4.562
		c0.475-2.289-1.409-2.302-1.734-4.136c-0.265-1.504,1.472-2.483,1.675-4.329c0.212-1.931-0.443-3.961-2.894-3.375
		c-3.538,0.846-3.812,5.922-2.937,8.232c0.869,2.289,0.823,2.589-0.113,4.755c-0.88,2.038-0.761,2.795,0.113,4.863
		c0.863,2.042,1.572,2.928-0.467,4.437c-0.821,0.607-3.579,2.262-4.51,2.221c-1.667-0.073-2.493-1.902-4.269-2.214
		c-1.704-0.299-2.915,0.337-4.442,1.189c-0.732,0.409-1.153,1.168-2.096,1.266c-1.646,0.171-0.846-0.293-2.102-1.02
		c-2.298-1.331-2.252-0.497-4.41,0.098c-1.697,0.467-1.175,0.646-3.096-0.784c-6.991,2.877-2.448-5.299-3.175-7.602
		c-0.666-2.107-1.773-2.159-0.853-4.563c0.679-1.775,1.906-2.524,1.207-4.681c-0.219-0.674-0.812-1.116-1.073-1.809
		c-0.166-0.44-0.299-2.26-0.603-2.52c-0.578-0.499-0.81-0.5-1.505-0.176"/>
	<path fill="#FF0000" d="M175.105,51.51c-2.077-2.071,0.138-3.181,1.207-4.563c1.674-2.167,1.014-2.941,0.704-5.285
		c-0.317-2.386,0.046-3.526,1.745-4.983c1.345-1.153,3.286-2.474,3.555-4.377c0.324-2.29-1.264-3.906,0.235-6.022
		c1.33-1.879,3.106-1.884,3.897-4.123c0.875-2.476-0.395-3.802-0.535-5.945c-0.16-2.448,1.14-3.109,2.894-4.748
		c1.398-1.305,2.11-1.852,2.389-3.903c0.275-2.017,0.072-3.726,1.681-5.296c1.22-1.19,3.553-2.032,4.863-0.768
		c1.665,1.606-0.378,3.265-0.065,5.108c0.329,1.937,2.463,2.443,3.615,3.784c1.785,2.081,1.014,2.538,0.649,4.803
		c-0.8,4.957,5.703,4.098,5.839,8.219c0.059,1.777-1.842,2.681-0.976,4.812c0.831,2.041,3.327,2.193,4.273,3.895
		c1.147,2.06-0.917,3.112-1.159,4.971c-0.355,2.74,2.028,2.908,3.62,4.27c1.707,1.459,1.616,2.691,1.136,4.576
		c-0.625,2.457-0.921,2.676,0.78,4.616c1.168,1.332,2.813,2.358,0.252,3.374c-1.917,0.761-4.143-0.261-4.995-1.94
		c-1.287-2.537,0.458-6.195-1.081-8.592c-0.653-1.016-1.932-1.343-2.521-2.503c-0.587-1.154-0.649-2.935-0.583-4.228
		c-2.183-1.748-2.509-0.497-4.457,0.505c-2.266,1.166-3.072,0.51-4.935-0.485c-2.326-1.242-2.516-0.807-4.736,0.419
		c-1.904,1.052-2.991,1.325-4.99,0c-1.158-0.768-2.585-2.986-4.075-1.393c-1.018,1.089,0.115,4.16,0.179,5.476
		c0.219,4.439-4.225,4.433-4.329,8.651c-0.1,4.081-1.062,3.01-3.837,2.396 M196.051,32.109c1.518-0.422,2.773-2.158,4.458-1.92
		c1.734,0.245,1.924,2.456,3.405,2.839c3.563,0.924,0.72-2.117,0.191-3.068c-1.275-2.289,0.328-3.224,0.059-5.348
		c-0.247-1.949-1.828-1.849-2.94-3.064c-1.296-1.414-1.04-2.889-1.376-4.622c-0.406-2.092-1.435-2.455-2.354-4.13
		c-0.794-1.449-0.993-3.438-1.537-4.954c-2.237-0.649-2.184,3.621-3.267,5.134c-1.5,2.097-2.746,2.502-2.701,5.385
		c0.042,2.669,0.539,4.781-0.782,7.144c-0.977,1.755-4.479,3.092-3.241,5.59c1.331,2.684,3.109-1.145,4.988-0.972
		C193.129,30.334,193.525,32.812,196.051,32.109z"/>
	<path fill="#FF0000" d="M253.398,7.318c-1.903-0.02-2.66-1.899-4.616-1.498c-1.764,0.362-2.927,2.442-5.001,1.992
		c-2.029-0.44-2.48-2.593-5.038-2.178c-1.601,0.26-2.896,1.445-4.558,1.687c-2.045,0.296-3.499-1.283-5.038-1.206
		c-4.428,0.223-0.117,3.303,0.187,4.621c0.341,1.482-0.764,1.944-1.334,3.122c-0.996,2.06-0.375,1.296,0.362,2.888
		c0.735,1.592,0.958,1.072,0.479,3.009c-0.334,1.351-1.055,2.314-0.858,3.855c1.911,1.179,2.494,0.348,4.34,0.335
		c1.71-0.011,1.826,1.217,3.531,1.64c2.097,0.521,3.042-1.221,4.815-1.459c1.788-0.24,2.737,1.067,4.317,1.506
		c2.485,0.689,2.87-0.744,4.815-1.506c2.024-0.793,2.596,0.314,3.895,1.628c1.156,1.166,2.965,1.678,1.129,2.94
		c-2.199,1.51-3.972-1.722-6.503-0.94c-1.9,0.586-3.327,2.392-5.5,1.427c-1.715-0.761-1.522-1.871-3.583-1.439
		c-2.736,0.573-3.692,3.645-6.749,1.913c-0.895-0.508-1.31-2.207-2.624-2.177c-5.089,0.114-0.157,5.54-0.049,7.013
		c0.145,1.954-2.41,3.256-1.884,5.258c0.634,2.413,2.377,0.952,0.913,3.783c-0.508,0.981-1.628,1.004-1.146,2.694
		c0.486,1.709,0.978,0.946,2.401,1.442c2,0.697,3.66,2.215,5.83,1.507c1.1-0.359,1.538-1.609,3.067-1.278
		c0.83,0.179,1.378,1.28,2.338,1.505c2.395,0.561,3.789-2.303,6.254-1.691c1.298,4.522,6.836-1.427,8.993,0.133
		c2.917,2.109-4.169,6.058-6.261,5.301c-0.806-0.292-0.69-1.19-1.73-1.392c-1.318-0.256-1.614,0.57-2.647,0.9
		c-0.934,0.297-1.509,0.712-2.635,0.54c-1.457-0.224-1.374-1.061-2.396-1.392c-2.605-0.844-3.059,1.782-5.301,1.878
		c-2.144,0.091-2.462-2.062-4.551-2.167c-1.732-0.087-3.335,2.429-5.042,1.692c-1.367-0.589-0.856-3.444-1.501-4.754
		c-0.368-0.747-1.297-1.064-1.441-1.976c-0.237-1.511,0.698-1.252,1.2-2.468c1.054-2.557-1.026-2.351-1.151-4.503
		c-0.07-1.209,0.956-1.337,1.278-2.09c0.797-1.865,0.357-1.147-0.265-2.772c-0.822-2.143-0.764-2.604,0.198-4.744
		c1.051-2.34,0.499-2.333-0.3-4.503c-0.789-2.145,0.334-2.845,0.781-4.863c0.516-2.337-1.207-2.888-1.447-5.043
		c-0.233-2.098,1.844-3.479,1.686-5.523c-0.146-1.888-1.731-2.81-1.439-5.042c0.547-4.198,3.721-3.15,6.727-2.331
		c3.61,0.985,7.174-1.184,10.371,0.108c2.001,0.809,2.958,1.725,5.24,0.719c1.325-0.583,2.34-1.736,3.895-1.695
		c1.258,0.033,2.097,1.025,3.262,1.255c0.908,0.179,2.831-0.482,3.472,0.091C258.637,4.9,255.086,7.336,253.398,7.318z"/>
	<path fill="#FF0000" d="M410.705,7.318c-1.903-0.02-2.66-1.899-4.616-1.498c-1.764,0.362-2.928,2.442-5.002,1.992
		c-2.029-0.44-2.48-2.593-5.037-2.178c-1.601,0.26-2.896,1.445-4.558,1.687c-2.045,0.296-3.499-1.283-5.038-1.206
		c-4.428,0.223-0.116,3.303,0.187,4.621c0.342,1.482-0.764,1.944-1.334,3.122c-0.996,2.06-0.374,1.296,0.362,2.888
		c0.735,1.592,0.959,1.072,0.479,3.009c-0.334,1.351-1.056,2.314-0.858,3.855c1.911,1.179,2.493,0.348,4.34,0.335
		c1.71-0.011,1.825,1.217,3.531,1.64c2.097,0.521,3.041-1.221,4.815-1.459c1.788-0.24,2.737,1.067,4.317,1.506
		c2.485,0.689,2.869-0.744,4.815-1.506c2.024-0.793,2.596,0.314,3.895,1.628c1.156,1.166,2.966,1.678,1.129,2.94
		c-2.199,1.51-3.972-1.722-6.503-0.94c-1.9,0.586-3.327,2.392-5.5,1.427c-1.715-0.761-1.522-1.871-3.582-1.439
		c-2.736,0.573-3.692,3.645-6.749,1.913c-0.896-0.508-1.31-2.207-2.624-2.177c-5.09,0.114-0.157,5.54-0.049,7.013
		c0.145,1.954-2.41,3.256-1.884,5.258c0.634,2.413,2.377,0.952,0.913,3.783c-0.508,0.981-1.628,1.004-1.146,2.694
		c0.485,1.709,0.978,0.946,2.4,1.442c2,0.697,3.66,2.215,5.83,1.507c1.1-0.359,1.537-1.609,3.067-1.278
		c0.829,0.179,1.378,1.28,2.338,1.505c2.395,0.561,3.789-2.303,6.254-1.691c1.298,4.522,6.837-1.427,8.993,0.133
		c2.917,2.109-4.169,6.058-6.261,5.301c-0.806-0.292-0.69-1.19-1.73-1.392c-1.317-0.256-1.614,0.57-2.646,0.9
		c-0.935,0.297-1.51,0.712-2.636,0.54c-1.457-0.224-1.374-1.061-2.396-1.392c-2.605-0.844-3.059,1.782-5.301,1.878
		c-2.144,0.091-2.463-2.062-4.551-2.167c-1.732-0.087-3.335,2.429-5.043,1.692c-1.366-0.589-0.856-3.444-1.501-4.754
		c-0.367-0.747-1.297-1.064-1.44-1.976c-0.237-1.511,0.697-1.252,1.199-2.468c1.054-2.557-1.026-2.351-1.15-4.503
		c-0.07-1.209,0.956-1.337,1.277-2.09c0.798-1.865,0.357-1.147-0.265-2.772c-0.821-2.143-0.764-2.604,0.198-4.744
		c1.051-2.34,0.499-2.333-0.301-4.503c-0.788-2.145,0.334-2.845,0.781-4.863c0.516-2.337-1.207-2.888-1.447-5.043
		c-0.233-2.098,1.844-3.479,1.687-5.523c-0.146-1.888-1.731-2.81-1.439-5.042c0.547-4.198,3.721-3.15,6.727-2.331
		c3.609,0.985,7.174-1.184,10.371,0.108c2.001,0.809,2.958,1.725,5.239,0.719c1.325-0.583,2.341-1.736,3.896-1.695
		c1.258,0.033,2.097,1.025,3.262,1.255c0.908,0.179,2.83-0.482,3.472,0.091C415.943,4.9,412.392,7.336,410.705,7.318z"/>
	<path fill="#FF0000" d="M266.847,4.198c0.944-0.542,2.123-3.634,3.667-2.707c1.901,1.141-0.811,3.943-0.796,5.095
		c0.021,1.867,2.757,2.813,2.125,5.008c-0.46,1.6-2.668,1.408-2.054,3.35c0.543,1.713,2.936,1.644,1.686,4.395
		c-0.765,1.685-2.759,1.967-2.237,4.324c0.357,1.617,2.271,2.883,2.646,4.545c0.508,2.254-0.947,2.622-1.434,4.569
		c-0.725,2.9,2.49,4.343,1.739,7.018c-0.663,2.358-4.006,3.328-2.659,6.148c2.663-0.354,2.601,1.552,2.635,3.609
		c2.452,0.784,2.99-0.564,4.996-1.123c1.702-0.476,2.879,0.965,4.491,0.951c1.89-0.018,3.061-1.937,4.964-1.844
		c1.768,0.086,2.924,2.123,4.819,1.77c1.205-0.225,1.717-1.85,3.032-1.877c1.493-0.031,3.535,2.122,2.88,3.722
		c-0.761,1.854-2.47,0.008-4.245,0.837c-1.359,0.634-2.195,2.22-3.937,1.694c-1.555-0.47-1.404-2.027-3.347-2.172
		c-2.071-0.154-3.821,1.68-5.835,1.618c-1.708-0.051-2.788-1.601-4.492-1.618c-1.796-0.017-3.143,1.935-5.049,1.447
		c-1.722-0.441-1.679-2.13-2.576-3.428c-1.145-1.657-2.553-1.921-2.047-4.275c0.315-1.464,2.369-3.229,1.999-4.804
		c-0.424-1.806-2.427-1.75-1.944-4.31c0.33-1.753,2.005-3.076,2.418-4.809c0.719-3.018-2.062-3.129-2.947-5.652
		c-1.141-3.254,1.829-4.248,2.22-6.831c0.447-2.953-2.925-4.27-2.106-7.685c0.512-2.133,2.422-4.855,1.146-6.725"/>
	<path fill="#FF0000" d="M459.458,7.561c1.091,1.182,1.983,0.937,3.373,1.862c2.105,1.399,1.803,2.955,2.149,5.114
		c0.457,2.844,1.042,1.686,2.93,3.285c1.968,1.665,0.801,2.932,0.367,5.068c-0.587,2.897,0.858,3.621,1.512,6.04
		c0.637,2.359-0.847,3.071-1.739,4.797c-1.137,2.196-0.268,3.328,0.053,5.536c0.354,2.429-0.387,3.118-2.389,4.382
		c-0.716,0.454-2.454,0.892-2.911,1.611c-0.557,0.872,0.129,1.986-0.225,2.892c-0.821,2.104-3.462,2.317-5.47,3.064
		c-0.944,0.352-2.14,0.573-2.887,1.32c-0.929,0.928-0.588,1.723-1.742,2.406c-1.944,1.151-3.216-0.326-4.971-0.845
		c-2.018-0.596-3.028-0.288-4.904,0.481c-2.513,1.03-3.884,1.729-5.256-0.662c-1.261-2.198-0.593-2.914-3.596-2.648
		c-1.728,0.152-3.723,1.095-4.982-1.009c-0.993-1.659-0.281-4.065-1.297-5.908c-2.614-0.453-4.423-0.763-4.28-3.937
		c0.107-2.375,0.852-4.098-0.301-6.372c-1.417-2.79-1.521-3.153-0.234-6.309c0.677-1.663,1.771-4.734-0.623-5.562
		c-1.888-0.652,2.937-5.434,3.173-5.806c1.557-2.456,0.286-4.595,0.867-7.12c0.649-2.815,3.361-1.938,5.523-2.403
		c2.746-0.591,1.819-2.634,3.662-4.021c1.962-1.477,2.862,0.399,4.684,0.65c2.18,0.3,2.994-1.27,5.044-1.972
		c0.009-0.002,0.018-0.005,0.026-0.008c2.325-0.783,3.12,1.64,4.989,2.396c1.452-1.336,5.773-1.291,7.352,0.074
		C458.391,4.854,458.537,6.562,459.458,7.561z M429.244,18.187c-1.233,1.278-2.434,1.727-2.22,3.796
		c0.217,2.104,1.596,2.827,0.732,5.277c-0.58,1.643-2.093,2.71-1.447,4.803c0.548,1.776,2.146,2.013,2.167,4.317
		c0.024,2.87-0.938,2.4,1.261,4.024c2.437,1.799,0.709,2.25,1.616,4.627c0.884,2.316,2.747,0.684,4.275,1.004
		c2.541,0.532,1.547,2.774,2.689,4.04c1.535,1.699,3.125,0.201,4.562-0.312c2.172-0.775,3.475-0.457,5.531,0.065
		c2.62,0.664,2.994,0.292,4.737-1.494c1.491-1.529,2.729-1.447,4.395-2.395c2.268-1.289,1.291-2.368,2.149-4.282
		c0.766-1.707,2.833-1.862,3.907-3.292c1.465-1.947,0.096-3.778-0.125-5.577c-0.268-2.184,1.049-2.928,1.688-4.822
		c0.687-2.038-0.235-2.618-1.201-4.256c-1.195-2.029-0.806-3.08-0.9-5.344c-0.126-3.011-1.263-1.938-3.062-3.422
		c-1.568-1.292-0.966-2.647-1.735-4.269c-1.927-4.062-6.331-1.939-9.428-3.774c-1.704-1.01-2.597-2.35-4.72-1.675
		c-1.688,0.536-2.648,2.405-4.063,3.31c-2.35,1.501-5.521,0.344-7.784,1.991C429.569,12.492,431.408,15.947,429.244,18.187z"/>
	<path fill="#FF0000" d="M475.305,8.521c-0.24-1.42-1.698-2.339-1.864-3.768c-0.348-2.958,2.26-3.875,3.855-1.34
		c1.022,1.625,2.29,3.866,2.375,5.827c0.082,1.885-1.299,3.234-0.292,5.04c1.079,1.935,3.029,2.721,2.665,5.288
		c-0.379,2.675-1.334,2.6,0.661,5.109c1.343,1.69,1.862,2.439,1.741,4.75c-0.077,1.474-0.841,4.081-0.012,5.511
		c0.964,1.662,2.846,1.301,2.641,3.843c-0.122,1.503-1.909,2.839-1.686,4.331c0.281,1.862,3.127,2.96,4.573,1.733
		c1.688-1.429,0.063-3.48-0.011-5.097c-0.121-2.646,1.755-3.104,2.719-4.983c0.768-1.498,0.656-3.487,0.362-5.057
		c-0.463-2.462-0.382-2.815,1.308-5.03c1.405-1.842,1.844-2.415,1.367-4.616c-0.399-1.841-1.164-2.981,0.067-4.75
		c1.114-1.603,2.8-1.791,3.068-3.908c0.49-3.87-2.419-7.297,2.642-9.607c5.468-2.495,2.826,3.91,3.843,6.004
		c0.76,1.565,2.732,2.039,3.302,3.902c0.662,2.163-1.103,2.983-0.906,4.989c0.173,1.757,2.394,2.81,3.074,4.317
		c0.997,2.208-0.43,2.248-1.087,4.13c-1.26,3.607,4.72,4.511,3.729,9.079c-0.426,1.964-1.508,2.469,0.534,4.082
		c1.925,1.521,2.856,0.822,1.733,3.657c-0.63,1.591-1.717,3.666,1.148,3.788c2.84,0.122,1.91-2.543,1.915-4.322
		c0.013-4.615,3.327-6.215,2.407-10.807c-0.525-2.627-0.492-2.895,1.207-4.984c1.192-1.465,2.035-2.403,1.688-4.634
		c-0.322-2.066-1.667-3.183-0.312-5.277c1.017-1.573,2.755-1.742,2.94-3.837c0.165-1.866-1.424-3.014-1.44-4.803
		c-0.02-2.153,1.487-2.843,3.116-3.782c1.539-0.887,3.366-2.563,5.253-2.185c0.686,2.402-1.626,2.592-2.546,4.106
		c-1.061,1.749,0.1,3.23-0.06,5.224c-0.203,2.537-1.627,2.945-2.827,4.857c-1.136,1.807-0.681,3.303-0.295,5.23
		c0.399,1.996,0.962,3.544-0.534,5.229c-1.46,1.646-2.474,1.221-2.054,4.137c0.244,1.708,1.345,3.282,0.139,4.983
		c-0.959,1.352-2.751,1.275-3.327,3.17c-1.269,4.167,1.278,7.112-2.577,10.398c-2.246,1.916-7.28,4.243-7.256-0.541
		c0.009-1.881,1.576-3.191,1.019-5.042c-0.562-1.863-2.727-2.066-3.367-3.843c-0.698-1.938,1.032-3.474,0.906-5.283
		c-0.173-2.5-1.504-1.816-2.828-3.177c-2.803-2.875,0.853-6.843-1.313-9.493c-1.413-1.728-2.552-1.454-2.396-3.902
		c0.102-1.601,1.738-3.643,1.025-5.295c-0.7-1.627-3.385-2.042-4.279-0.655c-0.837,1.296,0.519,4.029,0.426,5.469
		c-0.129,2.009-1.242,2.952-1.927,4.809c-0.665,1.801,0.006,3.87-0.529,5.705c-0.541,1.857-2.549,2.88-2.774,4.857
		c-0.227,1.991,1.171,3.095,0.126,4.977c-0.853,1.536-2.677,1.728-2.825,3.676c-0.119,1.549,1.928,3.008,1.696,4.555
		c-0.333,2.235-2.687,1.917-4.346,2.631c-1.57,0.675-1.262,0.923-1.909,2.173c-0.413,0.798-0.092,1.997-1.149,2.222
		c-1.092,0.232-2.696-2.036-3.373-2.756c-2.914-3.102,0.227-4.332-0.749-7.883c-0.522-1.903-2.754-1.872-3.135-3.831
		c-0.35-1.807,0.872-3.691,0.961-5.523c0.21-4.333-3.609-4.876-3.603-9.367c0.003-1.954,0.634-3.535-0.468-5.097
		c-1.374-1.949-3.152-1.5-3.135-4.27c0.012-1.695,1.229-3.312,0.963-5.012C475.308,8.542,475.307,8.531,475.305,8.521z"/>
</g>
<image overflow="visible" width="205" height="41" transform="matrix(1 0 0 1 941.2085 785.3076)">
</image>
</svg>
